<mxfile host="app.diagrams.net" agent="Mozilla/5.0 (Windows NT 10.0; Win64; x64) AppleWebKit/537.36 (KHTML, like Gecko) Chrome/129.0.0.0 Safari/537.36 Edg/129.0.0.0" version="24.7.17">
  <diagram name="Page-1" id="c37626ed-c26b-45fb-9056-f9ebc6bb27b6">
    <mxGraphModel dx="1026" dy="427" grid="0" gridSize="10" guides="1" tooltips="1" connect="1" arrows="1" fold="1" page="0" pageScale="1" pageWidth="1100" pageHeight="850" background="none" math="0" shadow="0">
      <root>
        <mxCell id="0" />
        <mxCell id="1" parent="0" />
        <mxCell id="VUiK0m8J7aQR_x24gXU7-26" value="&lt;font style=&quot;font-size: 26px;&quot;&gt;边缘网络&lt;/font&gt;" style="ellipse;shape=cloud;whiteSpace=wrap;html=1;rounded=0;shadow=0;comic=0;strokeWidth=1;fontFamily=Verdana;fontSize=12;" vertex="1" parent="1">
          <mxGeometry x="563" y="732" width="1150" height="422" as="geometry" />
        </mxCell>
        <mxCell id="1c7a67bf8fd3230f-13" value="LAN" style="ellipse;shape=cloud;whiteSpace=wrap;html=1;rounded=0;shadow=0;comic=0;strokeWidth=1;fontFamily=Verdana;fontSize=12;" parent="1" vertex="1">
          <mxGeometry x="992" y="671" width="120" height="80" as="geometry" />
        </mxCell>
        <mxCell id="1c7a67bf8fd3230f-31" value="控制平面" style="shape=mxgraph.cisco.misc.route_switch_processor;html=1;dashed=0;fillColor=#036897;strokeColor=#ffffff;strokeWidth=2;verticalLabelPosition=bottom;verticalAlign=top;rounded=0;shadow=0;comic=0;fontFamily=Verdana;fontSize=12;" parent="1" vertex="1">
          <mxGeometry x="1282" y="853.5" width="64" height="86" as="geometry" />
        </mxCell>
        <mxCell id="1c7a67bf8fd3230f-55" style="edgeStyle=none;html=1;labelBackgroundColor=none;startFill=0;endArrow=none;endFill=0;strokeWidth=2;fontFamily=Verdana;fontSize=12;" parent="1" source="1c7a67bf8fd3230f-46" target="1c7a67bf8fd3230f-13" edge="1">
          <mxGeometry relative="1" as="geometry" />
        </mxCell>
        <mxCell id="1c7a67bf8fd3230f-46" value="" style="shape=mxgraph.cisco.routers.router;html=1;dashed=0;fillColor=#036897;strokeColor=#ffffff;strokeWidth=2;verticalLabelPosition=bottom;verticalAlign=top;rounded=0;shadow=0;comic=0;fontFamily=Verdana;fontSize=12;" parent="1" vertex="1">
          <mxGeometry x="1201" y="562" width="78" height="53" as="geometry" />
        </mxCell>
        <mxCell id="VUiK0m8J7aQR_x24gXU7-2" value="数据中心" style="ellipse;shape=cloud;whiteSpace=wrap;html=1;rounded=0;shadow=0;comic=0;strokeWidth=1;fontFamily=Verdana;fontSize=12;" vertex="1" parent="1">
          <mxGeometry x="1369" y="406" width="161" height="105" as="geometry" />
        </mxCell>
        <mxCell id="VUiK0m8J7aQR_x24gXU7-6" value="" style="endArrow=none;html=1;rounded=0;exitX=0.88;exitY=0.1;exitDx=0;exitDy=0;exitPerimeter=0;" edge="1" parent="1" source="1c7a67bf8fd3230f-46" target="VUiK0m8J7aQR_x24gXU7-2">
          <mxGeometry width="50" height="50" relative="1" as="geometry">
            <mxPoint x="1204" y="598" as="sourcePoint" />
            <mxPoint x="1254" y="548" as="targetPoint" />
          </mxGeometry>
        </mxCell>
        <mxCell id="VUiK0m8J7aQR_x24gXU7-10" value="" style="endArrow=classic;html=1;rounded=0;exitX=0.063;exitY=0.698;exitDx=0;exitDy=0;exitPerimeter=0;" edge="1" parent="1" source="1c7a67bf8fd3230f-31" target="VUiK0m8J7aQR_x24gXU7-24">
          <mxGeometry width="50" height="50" relative="1" as="geometry">
            <mxPoint x="1283.4499999999998" y="913" as="sourcePoint" />
            <mxPoint x="1114" y="913" as="targetPoint" />
          </mxGeometry>
        </mxCell>
        <mxCell id="VUiK0m8J7aQR_x24gXU7-11" value="控制" style="edgeLabel;html=1;align=center;verticalAlign=middle;resizable=0;points=[];" vertex="1" connectable="0" parent="VUiK0m8J7aQR_x24gXU7-10">
          <mxGeometry x="0.0809" relative="1" as="geometry">
            <mxPoint as="offset" />
          </mxGeometry>
        </mxCell>
        <mxCell id="VUiK0m8J7aQR_x24gXU7-12" value="" style="shape=flexArrow;endArrow=classic;html=1;rounded=0;" edge="1" parent="1">
          <mxGeometry width="50" height="50" relative="1" as="geometry">
            <mxPoint x="1413" y="555" as="sourcePoint" />
            <mxPoint x="1178" y="711" as="targetPoint" />
          </mxGeometry>
        </mxCell>
        <mxCell id="VUiK0m8J7aQR_x24gXU7-13" value="模型 规则下发" style="edgeLabel;html=1;align=center;verticalAlign=middle;resizable=0;points=[];" vertex="1" connectable="0" parent="VUiK0m8J7aQR_x24gXU7-12">
          <mxGeometry x="-0.0479" y="8" relative="1" as="geometry">
            <mxPoint as="offset" />
          </mxGeometry>
        </mxCell>
        <mxCell id="VUiK0m8J7aQR_x24gXU7-15" value="" style="shape=flexArrow;endArrow=classic;html=1;rounded=0;" edge="1" parent="1">
          <mxGeometry width="50" height="50" relative="1" as="geometry">
            <mxPoint x="1145" y="748" as="sourcePoint" />
            <mxPoint x="1274" y="848" as="targetPoint" />
          </mxGeometry>
        </mxCell>
        <mxCell id="VUiK0m8J7aQR_x24gXU7-16" value="模型 规则下发" style="edgeLabel;html=1;align=center;verticalAlign=middle;resizable=0;points=[];" vertex="1" connectable="0" parent="VUiK0m8J7aQR_x24gXU7-15">
          <mxGeometry x="-0.0479" y="8" relative="1" as="geometry">
            <mxPoint as="offset" />
          </mxGeometry>
        </mxCell>
        <mxCell id="VUiK0m8J7aQR_x24gXU7-17" value="流量监控" style="rounded=1;whiteSpace=wrap;html=1;" vertex="1" parent="1">
          <mxGeometry x="1399" y="858" width="70" height="25" as="geometry" />
        </mxCell>
        <mxCell id="VUiK0m8J7aQR_x24gXU7-18" value="配置" style="rounded=1;whiteSpace=wrap;html=1;" vertex="1" parent="1">
          <mxGeometry x="1399" y="898" width="70" height="25" as="geometry" />
        </mxCell>
        <mxCell id="VUiK0m8J7aQR_x24gXU7-19" value="通信" style="rounded=1;whiteSpace=wrap;html=1;" vertex="1" parent="1">
          <mxGeometry x="1399" y="934" width="70" height="25" as="geometry" />
        </mxCell>
        <mxCell id="VUiK0m8J7aQR_x24gXU7-20" value="传感器" style="shape=hexagon;perimeter=hexagonPerimeter2;whiteSpace=wrap;html=1;fixedSize=1;" vertex="1" parent="1">
          <mxGeometry x="1040" y="1004" width="65" height="42" as="geometry" />
        </mxCell>
        <mxCell id="VUiK0m8J7aQR_x24gXU7-21" value="边缘终端1" style="shape=mxgraph.cisco.computers_and_peripherals.terminal;sketch=0;html=1;pointerEvents=1;dashed=0;fillColor=#036897;strokeColor=#ffffff;strokeWidth=2;verticalLabelPosition=bottom;verticalAlign=top;align=center;outlineConnect=0;" vertex="1" parent="1">
          <mxGeometry x="930" y="826" width="36" height="34" as="geometry" />
        </mxCell>
        <mxCell id="VUiK0m8J7aQR_x24gXU7-23" value="边缘终端2&lt;div&gt;&lt;br&gt;&lt;/div&gt;" style="shape=mxgraph.cisco.computers_and_peripherals.terminal;sketch=0;html=1;pointerEvents=1;dashed=0;fillColor=#036897;strokeColor=#ffffff;strokeWidth=2;verticalLabelPosition=bottom;verticalAlign=top;align=center;outlineConnect=0;" vertex="1" parent="1">
          <mxGeometry x="930" y="965" width="36" height="34" as="geometry" />
        </mxCell>
        <mxCell id="VUiK0m8J7aQR_x24gXU7-24" value="数据平面交换机" style="image;html=1;image=img/lib/clip_art/networking/Switch_128x128.png" vertex="1" parent="1">
          <mxGeometry x="1019" y="860" width="80" height="80" as="geometry" />
        </mxCell>
        <mxCell id="VUiK0m8J7aQR_x24gXU7-29" value="" style="endArrow=none;html=1;rounded=0;exitX=0.91;exitY=0.92;exitDx=0;exitDy=0;exitPerimeter=0;" edge="1" parent="1" source="VUiK0m8J7aQR_x24gXU7-21" target="VUiK0m8J7aQR_x24gXU7-24">
          <mxGeometry width="50" height="50" relative="1" as="geometry">
            <mxPoint x="964" y="853" as="sourcePoint" />
            <mxPoint x="1014" y="803" as="targetPoint" />
          </mxGeometry>
        </mxCell>
        <mxCell id="VUiK0m8J7aQR_x24gXU7-30" value="" style="endArrow=none;html=1;rounded=0;exitX=1;exitY=0.5;exitDx=0;exitDy=0;exitPerimeter=0;" edge="1" parent="1" source="VUiK0m8J7aQR_x24gXU7-23" target="VUiK0m8J7aQR_x24gXU7-24">
          <mxGeometry width="50" height="50" relative="1" as="geometry">
            <mxPoint x="994" y="980" as="sourcePoint" />
            <mxPoint x="1044" y="930" as="targetPoint" />
          </mxGeometry>
        </mxCell>
        <mxCell id="VUiK0m8J7aQR_x24gXU7-31" value="" style="endArrow=none;html=1;rounded=0;exitX=0.5;exitY=0;exitDx=0;exitDy=0;" edge="1" parent="1" source="VUiK0m8J7aQR_x24gXU7-20" target="VUiK0m8J7aQR_x24gXU7-24">
          <mxGeometry width="50" height="50" relative="1" as="geometry">
            <mxPoint x="1071" y="1005" as="sourcePoint" />
            <mxPoint x="1121" y="955" as="targetPoint" />
          </mxGeometry>
        </mxCell>
        <mxCell id="VUiK0m8J7aQR_x24gXU7-32" value="" style="endArrow=none;html=1;rounded=0;entryX=0.375;entryY=0.888;entryDx=0;entryDy=0;entryPerimeter=0;exitX=0.4;exitY=0.1;exitDx=0;exitDy=0;exitPerimeter=0;" edge="1" parent="1" source="VUiK0m8J7aQR_x24gXU7-26" target="1c7a67bf8fd3230f-13">
          <mxGeometry width="50" height="50" relative="1" as="geometry">
            <mxPoint x="975" y="800" as="sourcePoint" />
            <mxPoint x="1025" y="750" as="targetPoint" />
          </mxGeometry>
        </mxCell>
      </root>
    </mxGraphModel>
  </diagram>
</mxfile>
